# Blender v2.76 (sub 0) OBJ File: 'Table.blend'
# www.blender.org
mtllib Table.mtl
o Table_Cube.001
v -2.922298 3.005675 7.316694
v -2.922298 -0.015283 7.316694
v -2.922298 3.005675 7.144945
v -2.922298 -0.015283 7.144945
v -2.750549 3.005675 7.316694
v -2.750549 -0.015283 7.316694
v -2.750549 3.005675 7.144945
v -2.750549 -0.015283 7.144945
v 2.922297 3.005675 7.316694
v 2.922297 -0.015283 7.316694
v 2.922297 3.005675 7.144945
v 2.922297 -0.015283 7.144945
v 2.750548 3.005675 7.316694
v 2.750548 -0.015283 7.316694
v 2.750548 3.005675 7.144945
v 2.750548 -0.015283 7.144945
v -2.922298 3.005675 -7.316693
v -2.922298 -0.015283 -7.316693
v -2.922298 3.005675 -7.144944
v -2.922298 -0.015283 -7.144944
v -2.750549 3.005675 -7.316693
v -2.750549 -0.015283 -7.316693
v -2.750549 3.005675 -7.144944
v -2.750549 -0.015283 -7.144944
v 2.922297 3.005675 -7.316693
v 2.922297 -0.015283 -7.316693
v 2.922297 3.005675 -7.144944
v 2.922297 -0.015283 -7.144944
v 2.750548 3.005675 -7.316693
v 2.750548 -0.015283 -7.316693
v 2.750548 3.005675 -7.144944
v 2.750548 -0.015283 -7.144944
v -3.264253 3.000000 7.754653
v -3.264253 3.172163 7.754653
v -3.264253 3.000000 -7.754653
v -3.264253 3.172163 -7.754653
v 3.264253 3.000000 7.754653
v 3.264253 3.172163 7.754653
v 3.264253 3.000000 -7.754653
v 3.264253 3.172163 -7.754653
vt 0.989930 0.000000
vt 0.993287 0.000000
vt 0.993287 1.000000
vt 0.989930 1.000000
vt 0.917320 1.000000
vt 0.909346 1.000000
vt 0.909345 0.000000
vt 0.917320 0.000000
vt 0.979858 1.000000
vt 0.976501 1.000000
vt 0.976501 0.000000
vt 0.979857 0.000000
vt 0.973143 1.000000
vt 0.965168 1.000000
vt 0.965169 0.000000
vt 0.973143 0.000000
vt 0.900872 0.006167
vt 0.904229 0.006167
vt 0.904229 0.007666
vt 0.900872 0.007666
vt 0.904229 0.004668
vt 0.900872 0.004668
vt 0.900872 0.003168
vt 0.904229 0.003168
vt 0.925296 1.000000
vt 0.925295 0.000000
vt 0.933270 0.000000
vt 0.933270 1.000000
vt 0.986573 1.000000
vt 0.986573 0.000000
vt 0.957194 1.000000
vt 0.957194 0.000000
vt 0.904229 0.012164
vt 0.904229 0.013663
vt 0.900872 0.013663
vt 0.900872 0.012164
vt 1.000000 0.000000
vt 1.000000 1.000000
vt 0.996643 1.000000
vt 0.996643 0.000000
vt 0.941245 1.000000
vt 0.941245 0.000000
vt 0.949219 0.000000
vt 0.949219 1.000000
vt 0.983216 1.000000
vt 0.983216 0.000000
vt 0.904229 0.009165
vt 0.900872 0.009165
vt 0.900872 0.010665
vt 0.904229 0.010665
vt 0.900872 0.001669
vt 0.904229 0.001669
vt 0.028478 0.312414
vt 0.028478 0.150733
vt 0.888425 0.150733
vt 0.888425 0.312414
vt 0.029675 0.242805
vt 0.889622 0.242805
vt 0.889622 0.404486
vt 0.029675 0.404486
vt 0.029675 0.081124
vt 0.889622 0.081124
vt 0.028478 0.156948
vt 0.888425 0.156948
vt 0.888425 0.318629
vt 0.028478 0.318629
vt 0.778082 0.474085
vt 0.035490 0.474085
vt 0.035490 0.991926
vt 0.778082 0.991926
vt 0.057952 0.025841
vt 0.917899 0.025841
vt 0.917899 0.976227
vt 0.057952 0.976227
vn 1.000000 0.000000 0.000000
vn 0.000000 0.000000 1.000000
vn -1.000000 0.000000 0.000000
vn 0.000000 0.000000 -1.000000
vn 0.000000 -1.000000 0.000000
vn 0.000000 1.000000 0.000000
usemtl TankMat
s off
f 2/1/1 4/2/1 3/3/1 1/4/1
f 4/5/2 8/6/2 7/7/2 3/8/2
f 8/9/3 6/10/3 5/11/3 7/12/3
f 6/13/4 2/14/4 1/15/4 5/16/4
f 1/17/5 3/18/5 7/19/5 5/20/5
f 6/21/6 8/22/6 4/23/6 2/24/6
f 10/13/3 9/16/3 11/11/3 12/10/3
f 12/25/2 11/26/2 15/27/2 16/28/2
f 16/1/1 15/4/1 13/29/1 14/30/1
f 14/31/4 13/32/4 9/15/4 10/14/4
f 9/17/5 13/22/5 15/21/5 11/18/5
f 14/33/6 10/34/6 12/35/6 16/36/6
f 18/37/1 17/38/1 19/39/1 20/40/1
f 20/41/4 19/42/4 23/43/4 24/44/4
f 24/45/3 23/46/3 21/30/3 22/29/3
f 22/5/2 21/8/2 17/26/2 18/25/2
f 17/19/5 21/47/5 23/48/5 19/20/5
f 22/49/6 18/48/6 20/47/6 24/50/6
f 26/45/3 28/9/3 27/12/3 25/46/3
f 28/31/4 32/44/4 31/43/4 27/32/4
f 32/2/1 30/40/1 29/39/1 31/3/1
f 30/41/2 26/28/2 25/27/2 29/42/2
f 25/33/5 27/36/5 31/49/5 29/50/5
f 30/51/6 32/52/6 28/24/6 26/23/6
f 34/53/3 36/54/3 35/55/3 33/56/3
f 36/57/4 40/58/4 39/59/4 35/60/4
f 40/58/1 38/57/1 37/61/1 39/62/1
f 38/63/2 34/64/2 33/65/2 37/66/2
f 33/67/5 35/68/5 39/69/5 37/70/5
f 38/71/6 40/72/6 36/73/6 34/74/6
