# Blender v2.76 (sub 0) OBJ File: 'Tank.blend'
# www.blender.org
mtllib Tank.mtl
o Plane
v -10.000000 0.000000 10.000000
v 10.000000 0.000000 10.000000
v -10.000000 0.000000 -10.000000
v 10.000000 0.000000 -10.000000
vn 0.000000 1.000000 0.000000
usemtl Plane
s off
f 1//1 2//1 4//1 3//1
o Cube_Cube.001
v -2.143503 -0.006000 5.000000
v -2.143503 4.294000 5.000000
v -2.143503 -0.006000 -5.000000
v -2.143503 4.294000 -5.000000
v 2.143503 -0.006000 5.000000
v 2.143503 4.294000 5.000000
v 2.143503 -0.006000 -5.000000
v 2.143503 4.294000 -5.000000
v -2.143503 0.269318 -5.000000
v -2.143503 0.269318 5.000000
v 2.143503 0.269318 -5.000000
v 2.143503 0.269318 5.000000
v -2.143503 4.070598 5.000000
v -2.143503 4.070598 -5.000000
v 2.143503 4.070598 -5.000000
v 2.143503 4.070598 5.000000
vn -1.000000 0.000000 0.000000
vn 0.000000 0.000000 -1.000000
vn 0.000000 0.000000 1.000000
vn 0.000000 1.000000 0.000000
vn 1.000000 0.000000 0.000000
vn 0.000000 -1.000000 0.000000
usemtl Tank
s off
f 6//2 8//2 7//2 5//2
f 8//3 12//3 11//3 7//3
f 10//4 6//4 5//4 9//4
f 20//5 19//5 18//5 17//5
f 11//6 12//6 10//6 9//6
usemtl Bottom
f 5//6 7//6 13//6 14//6
f 8//6 6//6 17//6 18//6
f 14//7 13//7 15//7 16//7
f 7//4 11//4 15//4 13//4
f 9//3 5//3 14//3 16//3
f 11//2 9//2 16//2 15//2
f 6//3 10//3 20//3 17//3
f 12//4 8//4 18//4 19//4
f 10//2 12//2 19//2 20//2
